<?xml version="1.0" encoding="UTF-8"?>
<svg version="1.1" xmlns="http://www.w3.org/2000/svg" width="543" height="567">
<path d="M0 0 C1.64621338 0.01015137 1.64621338 0.01015137 3.32568359 0.02050781 C28.90467542 0.34338955 28.90467542 0.34338955 35.9375 6.25 C40.63018189 13.16639178 41.59332359 21.29161856 43.0625 29.375 C43.43928079 31.40013629 43.81952827 33.42453487 44.20407104 35.44821167 C44.55050363 37.27817592 44.88712361 39.10998989 45.22314453 40.94189453 C46.66078991 47.59947995 47.91407001 50.96538289 53.484375 54.8125 C61.30427535 59.39486199 70.09862368 62.0208255 78.6171875 64.98828125 C81.61962593 66.12920785 84.3589873 67.42570873 87.1875 68.9375 C93.29968436 72.09379192 98.84584475 73.91985864 105.6875 72.4375 C111.07085332 70.01664912 115.96833731 66.4816994 120.86328125 63.2109375 C123.9375 61.25 123.9375 61.25 126.9375 60.25 C126.9375 59.59 126.9375 58.93 126.9375 58.25 C129.23828125 56.55859375 129.23828125 56.55859375 132.25 54.6875 C133.23613281 54.06746094 134.22226562 53.44742188 135.23828125 52.80859375 C139.70119096 50.23160247 143.85409546 49.45105386 148.9375 50.25 C153.45137942 52.13868299 157.73548863 54.48233362 160.9375 58.25 C160.9375 58.91 160.9375 59.57 160.9375 60.25 C161.49953125 60.48332031 162.0615625 60.71664062 162.640625 60.95703125 C165.50484142 62.56937076 167.41002021 64.5693562 169.6875 66.9375 C172.75084016 70.07742367 175.81693271 73.06835455 179.1875 75.875 C183.00980141 79.16124694 186.51226078 82.79454158 188.9375 87.25 C188.9375 88.57 188.9375 89.89 188.9375 91.25 C189.5975 91.25 190.2575 91.25 190.9375 91.25 C191.33151647 97.51278818 190.50912002 101.23756313 187.375 106.625 C186.83190186 107.59663086 186.83190186 107.59663086 186.27783203 108.58789062 C182.32459219 115.54448744 177.93055498 122.06324049 172.625 128.0625 C169.43133677 131.71605073 168.13525057 134.56912018 167.5625 139.4375 C168.35879945 147.53321108 172.52346444 154.4410241 176.22216797 161.56445312 C178.9761392 167.01652216 180.97139584 172.6574961 182.80810547 178.47680664 C184.45398439 183.51544325 186.04854081 187.39639035 190.62695312 190.33398438 C197.92622976 194.02885177 206.14095499 194.97807661 214.125 196.3125 C216.28653545 196.67642335 218.44712284 197.04400025 220.60603333 197.42320251 C222.55628932 197.76555196 224.50892682 198.09425334 226.46166992 198.42211914 C231.57903695 199.64098488 234.97015638 201.02121216 238.25 205.1875 C240.45835038 209.19524698 241.06078016 212.27577465 241.08276367 216.81567383 C241.09233345 218.16276176 241.09233345 218.16276176 241.10209656 219.5370636 C241.10376579 220.98244759 241.10376579 220.98244759 241.10546875 222.45703125 C241.10879715 223.45578781 241.11212555 224.45454437 241.11555481 225.48356628 C241.12061456 227.59589172 241.12296343 229.70822515 241.12280273 231.82055664 C241.12498476 235.04001164 241.14313843 238.25912143 241.16210938 241.47851562 C241.16504444 243.533853 241.16702848 245.589192 241.16796875 247.64453125 C241.17515427 248.60204788 241.18233978 249.55956451 241.18974304 250.5460968 C241.16763919 257.06608326 240.88996056 262.56536673 236.9375 268 C229.33833298 273.69937526 218.66137182 274.26344979 209.50390625 275.62304688 C202.85480578 276.68958044 197.1025482 278.57707753 190.9375 281.25 C189.9475 281.58 188.9575 281.91 187.9375 282.25 C181.47606372 292.19669585 177.52220952 304.35327557 172.9375 315.25 C172.2775 315.25 171.6175 315.25 170.9375 315.25 C167.93477866 322.81042337 166.62801793 329.11479345 169.125 337 C171.03299194 340.42122692 173.11214268 342.56246499 175.9375 345.25 C177.30865658 347.23253809 178.63163404 349.22523293 179.9375 351.25 C180.85781523 352.64990902 181.77840454 354.04963789 182.69921875 355.44921875 C183.67495717 356.9450008 184.65020963 358.44109995 185.625 359.9375 C186.37233398 361.07541992 186.37233398 361.07541992 187.13476562 362.23632812 C187.60978516 362.96658203 188.08480469 363.69683594 188.57421875 364.44921875 C189.00436279 365.10752686 189.43450684 365.76583496 189.87768555 366.4440918 C192.25064907 370.48758665 192.75742447 374.68867262 191.9375 379.25 C187.16497108 389.20010643 178.28836276 397.2909477 169.9375 404.25 C168.70647776 405.28947313 167.47723258 406.3310554 166.25 407.375 C165.39148438 408.10396484 165.39148438 408.10396484 164.515625 408.84765625 C163.10951675 410.09714354 161.79644735 411.44956817 160.5 412.8125 C155.93231459 417.15737148 151.66240771 420.50098937 145.1875 420.9375 C137.65164371 420.57531156 131.07357309 416.34071539 124.9375 412.25 C124.9375 411.59 124.9375 410.93 124.9375 410.25 C124.26460938 410.01410156 123.59171875 409.77820313 122.8984375 409.53515625 C118.52733687 407.63793711 114.63077348 405.03061662 110.640625 402.43945312 C105.7762304 399.406652 101.46864651 397.77918047 95.59375 398.5625 C89.62129922 400.46675967 84.12235099 403.01812567 78.49975586 405.75610352 C73.39858795 408.1811634 68.53453161 409.60469518 62.9375 410.25 C62.9375 410.91 62.9375 411.57 62.9375 412.25 C62.26203125 412.50394531 61.5865625 412.75789063 60.890625 413.01953125 C59.99859375 413.36371094 59.1065625 413.70789063 58.1875 414.0625 C57.30578125 414.39894531 56.4240625 414.73539062 55.515625 415.08203125 C51.9578853 416.69379514 49.58257966 417.91359842 47.84765625 421.5078125 C45.23838681 430.33363632 43.46263035 439.25357337 41.86352539 448.31494141 C40.58221524 455.22918109 39.1781092 461.89764566 34.125 467.125 C28.15323211 470.19619492 22.40266135 470.55818229 15.8203125 470.55078125 C14.9637204 470.55506638 14.1071283 470.5593515 13.22457886 470.56376648 C11.4210498 470.56948262 9.6174977 470.57003019 7.81396484 470.56567383 C5.07739294 470.56251718 2.34190711 470.58599529 -0.39453125 470.61132812 C-2.15624865 470.61360197 -3.91796893 470.61430422 -5.6796875 470.61328125 C-6.48622772 470.622491 -7.29276794 470.63170074 -8.12374878 470.64118958 C-14.34641818 470.59134149 -20.89877938 469.80030843 -25.88790894 465.77851868 C-32.12168476 459.37108137 -32.58361505 448.65924581 -34.0625 440.25 C-34.56899372 437.49692254 -35.09441576 434.74864514 -35.625 432 C-35.83253906 430.86046875 -36.04007813 429.7209375 -36.25390625 428.546875 C-37.81094865 421.96403913 -37.81094865 421.96403913 -41.859375 416.76171875 C-42.50390625 416.48972656 -43.1484375 416.21773438 -43.8125 415.9375 C-44.50859375 415.63714844 -45.2046875 415.33679688 -45.921875 415.02734375 C-48.94293239 413.93028094 -51.94355218 413.02973695 -55.0625 412.25 C-55.0625 411.59 -55.0625 410.93 -55.0625 410.25 C-56.22007812 410.15332031 -57.37765625 410.05664062 -58.5703125 409.95703125 C-63.11747754 409.38588492 -66.81827657 407.87762241 -70.9375 405.9375 C-72.34220742 405.30545481 -73.74715496 404.67394301 -75.15234375 404.04296875 C-77.44370472 402.99764185 -79.72573095 401.9373214 -82.00390625 400.86328125 C-87.63165527 398.35325235 -92.1065947 397.14682094 -98.0625 399.25 C-103.42151388 402.09381633 -108.52761218 405.27987993 -113.32421875 409.0078125 C-115.0625 410.25 -115.0625 410.25 -117.0625 410.25 C-117.3925 411.24 -117.7225 412.23 -118.0625 413.25 C-119.98828125 414.56640625 -119.98828125 414.56640625 -122.375 415.8125 C-123.15488281 416.22628906 -123.93476563 416.64007813 -124.73828125 417.06640625 C-125.50527344 417.45699219 -126.27226562 417.84757812 -127.0625 418.25 C-127.72121094 418.61996094 -128.37992187 418.98992187 -129.05859375 419.37109375 C-132.97645804 421.08945528 -136.89510125 420.93401074 -141.0625 420.25 C-148.8302509 416.68348402 -155.16343426 408.30075601 -161.0625 402.25 C-164.1092972 399.13599404 -167.2912427 396.35862462 -170.671875 393.6171875 C-171.36023438 392.94042969 -171.36023438 392.94042969 -172.0625 392.25 C-172.0625 391.59 -172.0625 390.93 -172.0625 390.25 C-172.92875 389.940625 -172.92875 389.940625 -173.8125 389.625 C-176.925627 387.7225335 -178.26989939 385.38705107 -180.0625 382.25 C-180.0625 381.26 -180.0625 380.27 -180.0625 379.25 C-180.7225 379.25 -181.3825 379.25 -182.0625 379.25 C-183.60471017 369.76112352 -179.43858514 363.73034423 -174.0625 356.25 C-173.66724121 355.69924805 -173.27198242 355.14849609 -172.86474609 354.58105469 C-169.66825912 350.17039824 -166.37643651 345.84583561 -162.9140625 341.640625 C-159.94387955 337.80570524 -157.83495874 333.94798921 -158.25390625 328.98046875 C-158.74939219 326.69030931 -159.36374009 324.4860317 -160.0625 322.25 C-160.43831788 320.89606009 -160.8133975 319.54191489 -161.1875 318.1875 C-161.47625 317.218125 -161.765 316.24875 -162.0625 315.25 C-162.7225 315.25 -163.3825 315.25 -164.0625 315.25 C-164.92642153 313.2008026 -165.79001289 311.15146856 -166.65283203 309.10180664 C-167.38716216 307.36042787 -168.12383529 305.62003535 -168.86279297 303.88061523 C-170.46773935 300.09349253 -172.06456544 296.31358755 -173.49609375 292.45703125 C-175.76882888 286.45316402 -175.76882888 286.45316402 -179.875 281.625 C-183.6007573 280.01781058 -187.08998268 279.07190014 -191.0625 278.25 C-191.0625 277.59 -191.0625 276.93 -191.0625 276.25 C-191.93974731 276.18087402 -191.93974731 276.18087402 -192.8347168 276.11035156 C-199.6213821 275.51135198 -206.20972963 274.39636764 -212.875 273 C-213.88498047 272.80792969 -214.89496094 272.61585938 -215.93554688 272.41796875 C-221.85877243 271.17467784 -225.33323987 270.11121851 -229.0625 265.25 C-232.64403884 259.69861479 -232.22153269 252.824107 -232.23046875 246.44921875 C-232.23379715 245.61340775 -232.23712555 244.77759674 -232.24055481 243.91645813 C-232.24559916 242.15402778 -232.24796391 240.39158795 -232.24780273 238.62915039 C-232.24998459 235.95637983 -232.26815407 233.28402557 -232.28710938 230.61132812 C-232.29004489 228.8906264 -232.29202863 227.16992273 -232.29296875 225.44921875 C-232.30015427 224.66141525 -232.30733978 223.87361176 -232.31474304 223.06193542 C-232.2870311 216.20955673 -231.59614666 209.83802873 -228.0625 203.875 C-221.7808221 198.37853183 -212.33874638 197.55507983 -204.3125 196.0625 C-203.40628906 195.88525391 -202.50007813 195.70800781 -201.56640625 195.52539062 C-197.00208805 194.66250127 -192.73171309 194.02581593 -188.0625 194.25 C-188.0625 193.59 -188.0625 192.93 -188.0625 192.25 C-187.38703125 192.06566406 -186.7115625 191.88132812 -186.015625 191.69140625 C-185.12359375 191.40136719 -184.2315625 191.11132812 -183.3125 190.8125 C-182.43078125 190.54566406 -181.5490625 190.27882813 -180.640625 190.00390625 C-176.68118368 187.31028632 -175.68087666 183.64036757 -174.0625 179.25 C-173.75973145 178.45231201 -173.45696289 177.65462402 -173.14501953 176.83276367 C-171.93671867 173.59739208 -170.77891198 170.34481409 -169.61914062 167.09179688 C-168.01429789 162.65065491 -166.28476748 158.43110508 -164.0625 154.25 C-163.4025 154.25 -162.7425 154.25 -162.0625 154.25 C-161.85367188 153.15751953 -161.85367188 153.15751953 -161.640625 152.04296875 C-161.28520946 150.32592744 -160.88780132 148.61618467 -160.421875 146.92578125 C-158.69962756 140.24655238 -159.54324625 135.61585625 -162.0625 129.25 C-162.7225 129.25 -163.3825 129.25 -164.0625 129.25 C-165.54296875 127.1953125 -165.54296875 127.1953125 -167.25 124.375 C-169.62029459 120.53127904 -172.05241302 116.79221076 -174.6875 113.125 C-184.33930958 99.33358812 -184.33930958 99.33358812 -183.0625 90.25 C-182.5675 88.765 -182.5675 88.765 -182.0625 87.25 C-181.4025 87.25 -180.7425 87.25 -180.0625 87.25 C-179.79308594 86.66605469 -179.52367187 86.08210938 -179.24609375 85.48046875 C-175.52178738 78.46205642 -169.22396803 73.64923926 -163.09375 68.82421875 C-160.23186851 66.39383228 -157.68963035 63.85203477 -155.11083984 61.13378906 C-145.07778908 50.58839984 -145.07778908 50.58839984 -138.0625 50.25 C-130.95714294 50.52765161 -124.62456497 53.97684779 -119.0625 58.25 C-119.0625 58.91 -119.0625 59.57 -119.0625 60.25 C-118.39734375 60.47558594 -117.7321875 60.70117188 -117.046875 60.93359375 C-114.58582152 62.01916315 -112.61436624 63.12485532 -110.390625 64.59765625 C-109.72546875 65.03787109 -109.0603125 65.47808594 -108.375 65.93164062 C-107.00894711 66.84622338 -105.64941131 67.77062232 -104.296875 68.70507812 C-99.36035926 71.9375466 -95.0128811 73.41652186 -89.0625 73.25 C-83.6413604 72.11694358 -78.84809733 69.68753073 -73.875 67.3125 C-66.59657827 63.87475311 -58.21074755 60.25 -50.0625 60.25 C-50.0625 59.59 -50.0625 58.93 -50.0625 58.25 C-49.37542969 57.981875 -48.68835938 57.71375 -47.98046875 57.4375 C-47.07941406 57.045625 -46.17835938 56.65375 -45.25 56.25 C-43.91001953 55.693125 -43.91001953 55.693125 -42.54296875 55.125 C-35.17658714 49.55671154 -35.02979759 35.48646167 -33.48828125 27.046875 C-31.81544583 18.44116553 -29.79896199 10.40162443 -23.8125 3.75 C-16.47018237 -0.25490052 -8.1648734 -0.07242127 0 0 Z M-93.0625 145.25 C-93.66989014 145.84707764 -94.27728027 146.44415527 -94.90307617 147.05932617 C-98.14623067 150.25426173 -101.21173602 153.45229879 -104 157.0625 C-104.58652344 157.81144531 -105.17304688 158.56039062 -105.77734375 159.33203125 C-107.24805031 161.14212729 -107.24805031 161.14212729 -107.0625 163.25 C-107.7225 163.25 -108.3825 163.25 -109.0625 163.25 C-122.32447965 186.50869916 -131.69669265 210.24571888 -131.5625 237.375 C-131.56035492 238.37697922 -131.56035492 238.37697922 -131.5581665 239.39920044 C-131.49410923 251.57931141 -129.84449301 262.68169941 -126.0625 274.25 C-125.84319824 274.95044434 -125.62389648 275.65088867 -125.39794922 276.37255859 C-122.73424708 284.73079699 -119.08117806 292.52466718 -115.0625 300.3125 C-114.65942627 301.09834473 -114.25635254 301.88418945 -113.84106445 302.69384766 C-111.11405719 307.80404357 -107.94146002 311.96992935 -104.0625 316.25 C-102.67760221 317.95031935 -101.30135577 319.6577565 -99.9375 321.375 C-98.97457031 322.58542969 -98.97457031 322.58542969 -97.9921875 323.8203125 C-96.66666116 325.48929506 -95.35891611 327.17250726 -94.06640625 328.8671875 C-92.199483 331.08711573 -90.49040676 332.60124123 -88.125 334.25 C-85.73057615 335.97662123 -83.75985193 337.56061249 -81.6875 339.6875 C-64.11256407 356.84398507 -39.61123195 364.81576194 -15.95703125 368.70703125 C-13.0625 369.25 -13.0625 369.25 -12.0625 370.25 C-9.92896826 370.35003289 -7.79212458 370.38081048 -5.65625 370.3828125 C-3.70525391 370.38474609 -3.70525391 370.38474609 -1.71484375 370.38671875 C-1.03405762 370.38462402 -0.35327148 370.3825293 0.34814453 370.38037109 C2.42878515 370.3750224 4.50920989 370.3803168 6.58984375 370.38671875 C7.89050781 370.38542969 9.19117188 370.38414062 10.53125 370.3828125 C11.73458984 370.38168457 12.93792969 370.38055664 14.17773438 370.37939453 C16.84734482 370.56455977 16.84734482 370.56455977 17.9375 369.25 C19.67429182 368.95378643 21.41224446 368.66326601 23.15454102 368.40136719 C58.10123244 363.06810631 89.29291393 345.31258082 111.1875 317.625 C111.66566162 317.02091309 112.14382324 316.41682617 112.63647461 315.79443359 C115.13603014 312.860066 115.13603014 312.860066 115.9375 309.25 C116.9275 308.92 117.9175 308.59 118.9375 308.25 C120.31134909 305.99274462 121.48492807 303.81062444 122.625 301.4375 C122.96805176 300.73842529 123.31110352 300.03935059 123.66455078 299.3190918 C127.59396133 291.14666837 130.90380993 282.71548475 134.15576172 274.25537109 C134.77089159 272.67739584 135.42523288 271.11470285 136.09375 269.55859375 C141.8670993 253.76206859 139.16420408 233.66049012 137.9375 217.25 C137.86144531 216.15558594 137.78539062 215.06117188 137.70703125 213.93359375 C135.35333118 192.69491196 124.11807235 170.7952866 110.9375 154.25 C110.19371094 153.30382812 109.44992187 152.35765625 108.68359375 151.3828125 C87.58246334 125.03317757 56.04990353 107.57046534 22.42333984 103.47265625 C-20.35705287 99.64082379 -62.89645757 114.80313914 -93.0625 145.25 Z " fill="#038AD4" transform="translate(267.0625,73.75)"/>
<path d="M0 0 C1.1240625 0.17144531 2.248125 0.34289062 3.40625 0.51953125 C6.14429979 1.11070109 8.14829759 1.69550012 10.5 3.1875 C12.93166216 8.05082431 11.74437329 14.02294471 10.1706543 19.01367188 C9.56948875 20.73293638 8.95331626 22.44700842 8.32421875 24.15625 C7.9983931 25.07660034 7.67256744 25.99695068 7.33686829 26.94519043 C6.30025577 29.8641972 5.24443476 32.77579806 4.1875 35.6875 C3.48891751 37.64145678 2.79163991 39.5958806 2.09570312 41.55078125 C1.11065138 44.31642509 0.12385076 47.08128167 -0.87312317 49.84265137 C-2.55276561 54.49486213 -4.17154504 59.16012487 -5.72291565 63.8565979 C-7.2054138 68.3034228 -8.7586841 72.72591416 -10.30078125 77.15234375 C-11.03844305 79.27407756 -11.77607219 81.39582272 -12.51367188 83.51757812 C-13.65832458 86.80818038 -14.80332841 90.09865951 -15.94897461 93.38891602 C-21.43431563 109.14539494 -21.43431563 109.14539494 -26.7578125 124.95703125 C-29.08700967 131.99034027 -31.49943486 138.98524375 -34.0625 145.9375 C-34.42279297 146.95070313 -34.78308594 147.96390625 -35.15429688 149.0078125 C-37.22476123 154.61240873 -39.1320135 159.03928641 -43.5 163.1875 C-49.39992539 165.63941704 -56.56675834 163.82502984 -62.5 162.1875 C-63.16 161.8575 -63.82 161.5275 -64.5 161.1875 C-67.39881704 152.07693214 -62.08798593 142.52059544 -58.625 134.1875 C-56.23732996 128.42856234 -54.39822356 122.63525296 -52.75 116.625 C-50.23974545 107.48626549 -47.37453187 98.48715227 -44.375 89.5 C-44.1629895 88.86101776 -43.950979 88.22203552 -43.73254395 87.56369019 C-41.47690981 80.77548142 -39.11379565 74.07514249 -36.40234375 67.45581055 C-34.96203454 63.83516313 -33.762518 60.14329158 -32.5625 56.4375 C-29.99962094 48.63902515 -27.29696822 40.90559445 -24.5 33.1875 C-24.19707031 32.32769531 -23.89414062 31.46789062 -23.58203125 30.58203125 C-21.31935536 24.20899216 -18.85771812 17.91484885 -16.375 11.625 C-16.02590576 10.73087402 -15.67681152 9.83674805 -15.31713867 8.91552734 C-14.98302979 8.07586426 -14.6489209 7.23620117 -14.3046875 6.37109375 C-14.00546387 5.61368896 -13.70624023 4.85628418 -13.39794922 4.07592773 C-12.28865994 1.74304231 -11.21153567 0.46726289 -8.78125 -0.48828125 C-5.70851278 -0.92498877 -3.06096342 -0.4879288 0 0 Z " fill="#078AD2" transform="translate(301.5,226.8125)"/>
<path d="M0 0 C3.68646178 3.89217951 6.7652171 7.92608436 7.375 13.3125 C6.89265691 18.05554035 5.58505644 18.94888813 2 22 C0.88807012 23.1173276 -0.21561761 24.24289662 -1.3125 25.375 C-4.3726377 28.4351377 -7.56359677 31.29486747 -10.8359375 34.125 C-18.1719155 40.48108202 -25.21036699 47.06276627 -32 54 C-30.61030298 57.0972229 -28.97757521 59.32452171 -26.65625 61.79296875 C-25.99149658 62.50155029 -25.32674316 63.21013184 -24.6418457 63.94018555 C-23.93503662 64.68179932 -23.22822754 65.42341309 -22.5 66.1875 C-21.77965576 66.94909424 -21.05931152 67.71068848 -20.31713867 68.49536133 C-15.72062741 73.31420972 -10.99344703 77.83151625 -5.9921875 82.2265625 C-1.4481778 86.27162211 1.72488318 89.68937261 2.1328125 95.98828125 C1.73070724 102.07899325 -1.79153597 106.88940723 -6 111 C-9 112.0625 -9 112.0625 -12 112 C-14.6875 110.6875 -14.6875 110.6875 -17 109 C-17.99 108.34 -18.98 107.68 -20 107 C-20 106.34 -20 105.68 -20 105 C-20.89187012 104.59817505 -20.89187012 104.59817505 -21.80175781 104.18823242 C-24.02239757 102.98789327 -25.4243607 101.79297002 -27.171875 99.98828125 C-27.74969727 99.39885742 -28.32751953 98.80943359 -28.92285156 98.20214844 C-29.82729004 97.26677246 -29.82729004 97.26677246 -30.75 96.3125 C-36.33499209 90.60740385 -36.33499209 90.60740385 -42.25 85.25 C-62.93171629 67.63059792 -62.93171629 67.63059792 -64.30078125 57.8515625 C-64.346134 49.23453984 -60.8433606 44.06358776 -55 38 C-50.48717949 34 -50.48717949 34 -48 34 C-47.67 33.01 -47.34 32.02 -47 31 C-45.00390625 29.17578125 -45.00390625 29.17578125 -42.5625 27.3125 C-41.75941406 26.68988281 -40.95632812 26.06726563 -40.12890625 25.42578125 C-38 24 -38 24 -36 24 C-35.74992187 23.41089844 -35.49984375 22.82179688 -35.2421875 22.21484375 C-33.83561753 19.70690295 -32.34445666 18.37575422 -30.125 16.5625 C-27.75344301 14.56562347 -25.86235498 12.82481542 -23.9375 10.375 C-21.77054837 7.71873671 -19.48744239 6.10491841 -16.66796875 4.19921875 C-14.81401771 2.94017731 -14.81401771 2.94017731 -12.8125 0.75 C-8.73278478 -3.18903539 -4.98106608 -2.14701124 0 0 Z " fill="#0589D2" transform="translate(230,255)"/>
<path d="M0 0 C5.44916063 0.380174 7.38426935 2.02269629 11 6 C11.99 6.825 12.98 7.65 14 8.5 C16.84845198 10.87370999 19.37933694 13.37933694 22 16 C26.58632615 20.21274326 31.24017241 24.34908525 35.9375 28.4375 C37.2922755 29.62430536 38.64637978 30.81187715 40 32 C40.91265625 32.79535156 41.8253125 33.59070313 42.765625 34.41015625 C56.44416808 46.53431943 56.44416808 46.53431943 57.375 55.6875 C57.26526018 61.67929438 54.25927024 65.80449948 50.0625 69.8828125 C48.69510763 71.07928083 47.31089741 72.25681466 45.91015625 73.4140625 C43.82789529 75.09322993 43.82789529 75.09322993 41.4375 77.5625 C38.96148409 80.03851591 36.36420225 82.27018774 33.69140625 84.52734375 C32.21738829 85.8107266 30.8194914 87.1805086 29.4375 88.5625 C27 91 27 91 24.0625 93.375 C21.74453214 95.25427317 19.88690208 97.25190711 18 99.5625 C15.35784226 102.75798921 12.51900131 104.78149918 9 107 C8.401875 107.763125 7.80375 108.52625 7.1875 109.3125 C4.5529026 111.34490371 3.78657798 111.17825486 0.5625 110.875 C-4.49219311 110.02150264 -7.77343212 109.35916981 -11.3125 105.4375 C-13.47168919 101.03915166 -14.0302524 97.80509721 -13 93 C-8.36122942 82.97296316 3.74227412 74.88487448 11.953125 67.796875 C15.58575449 64.60792545 19.12605376 61.31553261 22.6796875 58.0390625 C25 56 25 56 27 55 C27.33 54.01 27.66 53.02 28 52 C26.93072266 51.91492188 26.93072266 51.91492188 25.83984375 51.828125 C22.10623076 50.73936853 20.12630375 48.52257963 17.5625 45.75 C13.27714429 41.24328621 13.27714429 41.24328621 8.625 37.125 C5.87569201 34.89936972 3.47267041 32.53017437 1 30 C0.24847656 29.31679688 -0.50304687 28.63359375 -1.27734375 27.9296875 C-4.80017939 24.64615981 -7.56442601 22.04158998 -9.4375 17.5625 C-8.59650994 10.71443806 -4.09792728 5.36927219 0 0 Z " fill="#0489D3" transform="translate(322,255)"/>
<path d="M0 0 C1.09570312 0.00902344 2.19140625 0.01804688 3.3203125 0.02734375 C4.58488281 0.04474609 4.58488281 0.04474609 5.875 0.0625 C5.875 0.3925 5.875 0.7225 5.875 1.0625 C4.22177734 1.40861328 4.22177734 1.40861328 2.53515625 1.76171875 C-19.26373552 6.40658937 -39.48902991 12.46636514 -58.17602539 25.00073242 C-59.79183605 26.0741058 -61.4546869 27.07607785 -63.125 28.0625 C-63.785 27.7325 -64.445 27.4025 -65.125 27.0625 C-64.135 25.5775 -64.135 25.5775 -63.125 24.0625 C-62.465 24.0625 -61.805 24.0625 -61.125 24.0625 C-61.125 23.4025 -61.125 22.7425 -61.125 22.0625 C-60.196875 21.794375 -59.26875 21.52625 -58.3125 21.25 C-55.17932846 20.3454421 -55.17932846 20.3454421 -53.625 18.5 C-51.40174907 16.36938452 -49.10541933 16.3936577 -46.125 16.0625 C-46.125 15.4025 -46.125 14.7425 -46.125 14.0625 C-43.21899739 12.80585022 -41.32895416 12.0625 -38.125 12.0625 C-37.795 11.0725 -37.465 10.0825 -37.125 9.0625 C-35.805 9.0625 -34.485 9.0625 -33.125 9.0625 C-31.13822433 8.46549618 -31.13822433 8.46549618 -29.1875 7.625 C-26.18074686 6.43353894 -23.33524035 5.56410005 -20.125 5.0625 C-20.125 4.4025 -20.125 3.7425 -20.125 3.0625 C-19.135 3.0625 -18.145 3.0625 -17.125 3.0625 C-17.125 2.4025 -17.125 1.7425 -17.125 1.0625 C-16.49851563 1.07410156 -15.87203125 1.08570313 -15.2265625 1.09765625 C-14.00066406 1.11119141 -14.00066406 1.11119141 -12.75 1.125 C-11.53183594 1.14240234 -11.53183594 1.14240234 -10.2890625 1.16015625 C-6.72675025 0.99940209 -3.78972771 -0.04031625 0 0 Z " fill="#287BAB" transform="translate(254.125,176.9375)"/>
<path d="M0 0 C0.99 0.33 1.98 0.66 3 1 C0.80948826 5.81912582 -2.66959627 8.22714617 -6.79296875 11.3046875 C-9.43044959 13.33064623 -11.68203364 15.61938591 -14 18 C-15.48819998 19.20322552 -16.9764062 20.40644337 -18.46484375 21.609375 C-20.17391852 23.15754451 -21.55511932 24.82927362 -23 26.625 C-25.60809314 29.79197025 -28.15451773 31.44349527 -32 33 C-32 32.01 -32 31.02 -32 30 C-30.35 29.67 -28.7 29.34 -27 29 C-27 27.68 -27 26.36 -27 25 C-26.34 25 -25.68 25 -25 25 C-24.67 24.01 -24.34 23.02 -24 22 C-23.01 22 -22.02 22 -21 22 C-21 20.35 -21 18.7 -21 17 C-20.34 17 -19.68 17 -19 17 C-19 17.66 -19 18.32 -19 19 C-18.34 19 -17.68 19 -17 19 C-16.67 17.35 -16.34 15.7 -16 14 C-14.35 14 -12.7 14 -11 14 C-11 13.01 -11 12.02 -11 11 C-11.66 10.67 -12.32 10.34 -13 10 C-12.34 9.34 -11.68 8.68 -11 8 C-10.34 8.33 -9.68 8.66 -9 9 C-6.90178785 8.60061233 -6.90178785 8.60061233 -5 8 C-5 7.34 -5 6.68 -5 6 C-4.34 6 -3.68 6 -3 6 C-3 5.34 -3 4.68 -3 4 C-3.66 3.67 -4.32 3.34 -5 3 C-4.34 2.67 -3.68 2.34 -3 2 C-2.01 2.33 -1.02 2.66 0 3 C0 2.01 0 1.02 0 0 Z " fill="#0D73AF" transform="translate(363,328)"/>
<path d="M0 0 C0.66 0 1.32 0 2 0 C2.33 1.32 2.66 2.64 3 4 C3.639375 3.67 4.27875 3.34 4.9375 3 C7 2 7 2 8 2 C8.3125 4.6875 8.3125 4.6875 8 8 C5.9375 10.4375 5.9375 10.4375 3 13 C1.84772961 14.16030948 0.70221714 15.3273577 -0.4375 16.5 C-8.95609956 25 -8.95609956 25 -12 25 C-12 24.01 -12 23.02 -12 22 C-11.34 21.67 -10.68 21.34 -10 21 C-9.67 20.34 -9.34 19.68 -9 19 C-8.34 19.33 -7.68 19.66 -7 20 C-6.7834375 19.071875 -6.7834375 19.071875 -6.5625 18.125 C-5.64059321 14.64224101 -5.15156125 14.10104083 -2 12 C0.13586678 8.79619983 0.23132175 7.98060033 0.125 4.3125 C0.09792969 3.10013672 0.09792969 3.10013672 0.0703125 1.86328125 C0.04710937 1.24839844 0.02390625 0.63351562 0 0 Z " fill="#0583C9" transform="translate(229,264)"/>
<path d="M0 0 C0.66 0.33 1.32 0.66 2 1 C1.21654285 2.17219543 0.42297164 3.33763668 -0.375 4.5 C-0.81585938 5.1496875 -1.25671875 5.799375 -1.7109375 6.46875 C-2.13632813 6.9740625 -2.56171875 7.479375 -3 8 C-3.66 8 -4.32 8 -5 8 C-5.12076904 8.57419678 -5.24153809 9.14839355 -5.3659668 9.73999023 C-6.03309676 12.11797332 -6.95443089 13.99900906 -8.14453125 16.16015625 C-8.57266113 16.9493042 -9.00079102 17.73845215 -9.44189453 18.55151367 C-10.12034424 19.7944519 -10.12034424 19.7944519 -10.8125 21.0625 C-14.48957596 27.90149658 -17.75477092 34.54382881 -20 42 C-20.33 42 -20.66 42 -21 42 C-20.55421054 36.76197383 -19.16000587 32.83370809 -16.921875 28.08984375 C-15.89300736 25.75745311 -15.32610956 23.52734908 -15 21 C-14.34 21 -13.68 21 -13 21 C-12.34 18.03 -11.68 15.06 -11 12 C-10.01 12.33 -9.02 12.66 -8 13 C-8 10.69 -8 8.38 -8 6 C-7.360625 5.896875 -6.72125 5.79375 -6.0625 5.6875 C-5.0415625 5.3471875 -5.0415625 5.3471875 -4 5 C-3.67 4.01 -3.34 3.02 -3 2 C-2.01 1.34 -1.02 0.68 0 0 Z " fill="#3A75A3" transform="translate(163,229)"/>
<path d="M0 0 C2 3 2 3 3 6 C3.0825 5.38125 3.165 4.7625 3.25 4.125 C4 2 4 2 8 0 C8 3.3 8 6.6 8 10 C7.34 10 6.68 10 6 10 C6.185625 10.639375 6.37125 11.27875 6.5625 11.9375 C7.15333516 16.07334611 6.58271759 19.8851173 6 24 C4.33360693 20.85390519 3.39436218 17.84194076 2.57421875 14.37109375 C1.48821718 9.88671993 0.22637633 5.44765816 -1 1 C-0.67 0.67 -0.34 0.34 0 0 Z " fill="#1288C9" transform="translate(399,264)"/>
<path d="M0 0 C0.66 0.33 1.32 0.66 2 1 C1.5875 1.37697021 1.175 1.75394043 0.75 2.14233398 C-6.86967516 9.12526453 -14.39659825 16.02528479 -21 24 C-22 21 -22 21 -21 18 C-20.01 18 -19.02 18 -18 18 C-18 16.68 -18 15.36 -18 14 C-16.35 13.67 -14.7 13.34 -13 13 C-12.67 11.35 -12.34 9.7 -12 8 C-11.34 8 -10.68 8 -10 8 C-9.9175 7.37480469 -9.835 6.74960938 -9.75 6.10546875 C-9 4 -9 4 -7.1875 2.98828125 C-6.1046875 2.65376953 -6.1046875 2.65376953 -5 2.3125 C-2.25399382 1.56825097 -2.25399382 1.56825097 0 0 Z " fill="#2B79AB" transform="translate(187,205)"/>
<path d="M0 0 C2.05477391 2.49508261 3.98516399 4.97721613 5.75 7.6875 C9.44381114 13.34548056 13.91411219 18.51214422 18.25 23.68359375 C20 26 20 26 20 28 C19.34 28 18.68 28 18 28 C17.67 27.34 17.34 26.68 17 26 C16.01 25.566875 16.01 25.566875 15 25.125 C13 24 13 24 12.375 22.125 C12.25125 21.42375 12.1275 20.7225 12 20 C11.00864615 17.4072284 10.37862082 16.25648507 8.0625 14.6875 C5.84375 13.71875 5.84375 13.71875 3 15 C0.875 7.375 0.875 7.375 2 4 C1.34 4 0.68 4 0 4 C0 2.68 0 1.36 0 0 Z " fill="#2B7BB9" transform="translate(152,374)"/>
<path d="M0 0 C1.09445938 0.03541649 1.09445938 0.03541649 2.21102905 0.07154846 C4.54452889 0.14820379 6.87769839 0.23221968 9.2109375 0.31640625 C10.79165043 0.3696251 12.37237955 0.42236551 13.953125 0.47460938 C17.83093888 0.60382138 21.70847236 0.73963584 25.5859375 0.87890625 C25.5859375 1.20890625 25.5859375 1.53890625 25.5859375 1.87890625 C19.3159375 2.20890625 13.0459375 2.53890625 6.5859375 2.87890625 C6.5859375 3.20890625 6.5859375 3.53890625 6.5859375 3.87890625 C1.5612136 4.50420522 -3.33934677 5.00902717 -8.4140625 4.87890625 C-8.7440625 3.55890625 -9.0740625 2.23890625 -9.4140625 0.87890625 C-6.38761095 -0.63431952 -3.30634389 -0.12562993 0 0 Z " fill="#017CC6" transform="translate(257.4140625,443.12109375)"/>
<path d="M0 0 C3.21043882 1.38188453 5.04936365 2.92421903 7.25 5.625 C7.77078125 6.25664062 8.2915625 6.88828125 8.828125 7.5390625 C9.40820312 8.26222656 9.40820312 8.26222656 10 9 C6.89448334 9 5.64738916 8.4606285 3 7 C3 7.66 3 8.32 3 9 C2.34 9 1.68 9 1 9 C1 8.01 1 7.02 1 6 C0.34 6 -0.32 6 -1 6 C-1 6.66 -1 7.32 -1 8 C-1.99 8 -2.98 8 -4 8 C-4.33 8.66 -4.66 9.32 -5 10 C-5 8.35 -5 6.7 -5 5 C-4.34 4.67 -3.68 4.34 -3 4 C-1.96854629 2.69084721 -0.96457834 1.35917857 0 0 Z " fill="#0489CD" transform="translate(196,311)"/>
<path d="M0 0 C1.09570312 0.00902344 2.19140625 0.01804688 3.3203125 0.02734375 C4.16335938 0.03894531 5.00640625 0.05054688 5.875 0.0625 C5.875 0.3925 5.875 0.7225 5.875 1.0625 C4.6684375 1.32804688 3.461875 1.59359375 2.21875 1.8671875 C0.60415391 2.22390059 -1.01042871 2.58067468 -2.625 2.9375 C-3.41648438 3.11152344 -4.20796875 3.28554687 -5.0234375 3.46484375 C-10.07970933 4.58385473 -15.10642181 5.78483445 -20.125 7.0625 C-20.125 5.7425 -20.125 4.4225 -20.125 3.0625 C-19.135 3.0625 -18.145 3.0625 -17.125 3.0625 C-17.125 2.4025 -17.125 1.7425 -17.125 1.0625 C-16.18527344 1.07990234 -16.18527344 1.07990234 -15.2265625 1.09765625 C-14.00066406 1.11119141 -14.00066406 1.11119141 -12.75 1.125 C-11.53183594 1.14240234 -11.53183594 1.14240234 -10.2890625 1.16015625 C-6.72675025 0.99940209 -3.78972771 -0.04031625 0 0 Z " fill="#3D83B9" transform="translate(254.125,176.9375)"/>
<path d="M0 0 C0 2.33333333 0 4.66666667 0 7 C-1.9725034 8.79716977 -3.89258809 10.39128862 -6 12 C-7.01680311 12.98290968 -8.02738219 13.97334787 -9 15 C-10.32 14.01 -11.64 13.02 -13 12 C-8.71 8.04 -4.42 4.08 0 0 Z " fill="#259AD8" transform="translate(326,330)"/>
<path d="M0 0 C0.99 0.33 1.98 0.66 3 1 C3 1.99 3 2.98 3 4 C2.34 4 1.68 4 1 4 C1.33 4.99 1.66 5.98 2 7 C0 10 0 10 -3.125 10.6875 C-4.07375 10.790625 -5.0225 10.89375 -6 11 C-6.66 9.68 -7.32 8.36 -8 7 C-6.74057614 5.80040625 -5.46704714 4.61560557 -4.1875 3.4375 C-3.12595703 2.44556641 -3.12595703 2.44556641 -2.04296875 1.43359375 C-1.36878906 0.96050781 -0.69460938 0.48742187 0 0 Z " fill="#1990D3" transform="translate(335,322)"/>
<path d="M0 0 C2 2 2 2 2 5.625 C1.24779531 10.57323811 -1.24751818 14.69570687 -5 18 C-6.32 18 -7.64 18 -9 18 C-9.33 16.68 -9.66 15.36 -10 14 C-9.195625 14.185625 -8.39125 14.37125 -7.5625 14.5625 C-6.716875 14.706875 -5.87125 14.85125 -5 15 C-3.08316291 13.08316291 -3.57249695 9.63442708 -3.37890625 7.03125 C-3.19134766 6.02578125 -3.19134766 6.02578125 -3 5 C-2.34 4.67 -1.68 4.34 -1 4 C-0.34786708 1.97536745 -0.34786708 1.97536745 0 0 Z " fill="#1777BA" transform="translate(230,347)"/>
<path d="M0 0 C-1 3 -1 3 -2.63671875 4.02734375 C-3.31347656 4.32769531 -3.99023438 4.62804687 -4.6875 4.9375 C-7.41824364 6.20727128 -9.9058343 7.52463236 -12.375 9.25 C-15 11 -15 11 -17 11 C-17 10.01 -17 9.02 -17 8 C-17.66 7.67 -18.32 7.34 -19 7 C-17.94039063 6.57847656 -16.88078125 6.15695312 -15.7890625 5.72265625 C-14.40102351 5.16931638 -13.01300367 4.61592847 -11.625 4.0625 C-10.92632812 3.78470703 -10.22765625 3.50691406 -9.5078125 3.22070312 C-1.43665286 0 -1.43665286 0 0 0 Z " fill="#3098D2" transform="translate(336,427)"/>
<path d="M0 0 C2.97 0.495 2.97 0.495 6 1 C5.67 2.32 5.34 3.64 5 5 C4.01 5 3.02 5 2 5 C2 5.99 2 6.98 2 8 C-0.5 9.6875 -0.5 9.6875 -3 11 C-3.75 8.875 -3.75 8.875 -4 6 C-2.0625 2.6875 -2.0625 2.6875 0 0 Z " fill="#058CD5" transform="translate(322,255)"/>
<path d="M0 0 C1 3 1 3 1 6 C1.66 5.67 2.32 5.34 3 5 C3.33 6.32 3.66 7.64 4 9 C3.01 9 2.02 9 1 9 C1 9.66 1 10.32 1 11 C0.34 11 -0.32 11 -1 11 C-1.33 12.32 -1.66 13.64 -2 15 C-3.5625 13.75 -3.5625 13.75 -5 12 C-4.53705336 8.96512759 -3.33796628 6.46057989 -1.9375 3.75 C-1.57527344 3.04359375 -1.21304687 2.3371875 -0.83984375 1.609375 C-0.56269531 1.07828125 -0.28554688 0.5471875 0 0 Z " fill="#0585CD" transform="translate(393,367)"/>
<path d="M0 0 C0.89203125 0.10183594 1.7840625 0.20367187 2.703125 0.30859375 C3.37859375 0.39238281 4.0540625 0.47617188 4.75 0.5625 C1.65768389 2.62404407 1.14241113 2.78644445 -2.3125 2.625 C-6.03558927 2.26306433 -6.03558927 2.26306433 -8.25 3.5625 C-8.98075648 5.8765622 -9.65138258 8.21078869 -10.25 10.5625 C-10.91 10.5625 -11.57 10.5625 -12.25 10.5625 C-12.25 11.2225 -12.25 11.8825 -12.25 12.5625 C-12.91 12.5625 -13.57 12.5625 -14.25 12.5625 C-13.77548215 7.58006253 -12.41605547 4.4522253 -9.25 0.5625 C-6.06995068 -0.66006756 -3.3432497 -0.39591115 0 0 Z " fill="#419DCF" transform="translate(300.25,226.4375)"/>
<path d="M0 0 C0.33 0.99 0.66 1.98 1 3 C-0.42859407 4.03325986 -1.86822383 5.05127634 -3.3125 6.0625 C-4.51326172 6.91521484 -4.51326172 6.91521484 -5.73828125 7.78515625 C-6.48464844 8.18605469 -7.23101562 8.58695312 -8 9 C-8.99 8.67 -9.98 8.34 -11 8 C-10.34 7.67 -9.68 7.34 -9 7 C-8.731875 6.195625 -8.46375 5.39125 -8.1875 4.5625 C-7 2 -7 2 -4.5 0.6875 C-2 0 -2 0 0 0 Z " fill="#098BD5" transform="translate(163,473)"/>
<path d="M0 0 C5.4406941 1.0293205 7.95652547 1.80548618 11.4609375 6.234375 C14.31015658 9.50302227 17.68403595 12.21886886 21 15 C20.67 15.66 20.34 16.32 20 17 C19.2265625 16.26394531 18.453125 15.52789062 17.65625 14.76953125 C12.04914608 9.49596889 6.70164628 4.86633439 0 1 C0 0.67 0 0.34 0 0 Z " fill="#3080B5" transform="translate(347,199)"/>
<path d="M0 0 C0 0.66 0 1.32 0 2 C-3.43164199 3.36935928 -6.87111881 4.71782463 -10.3125 6.0625 C-11.28896484 6.45244141 -12.26542969 6.84238281 -13.27148438 7.24414062 C-14.20927734 7.60830078 -15.14707031 7.97246094 -16.11328125 8.34765625 C-17.40939331 8.85824585 -17.40939331 8.85824585 -18.73168945 9.37915039 C-21 10 -21 10 -24 9 C-21 7 -21 7 -18 7 C-17.67 6.01 -17.34 5.02 -17 4 C-15.68 4 -14.36 4 -13 4 C-10.94541294 3.40505538 -10.94541294 3.40505538 -8.9375 2.5625 C-2.48792271 0 -2.48792271 0 0 0 Z " fill="#37749F" transform="translate(234,182)"/>
<path d="M0 0 C1.65 0 3.3 0 5 0 C3.5611898 3.387199 1.77880501 5.3594104 -1 7.75 C-2.051875 8.67039062 -2.051875 8.67039062 -3.125 9.609375 C-5 11 -5 11 -7 11 C-7 10.01 -7 9.02 -7 8 C-6.34 7.67 -5.68 7.34 -5 7 C-4.67 6.34 -4.34 5.68 -4 5 C-3.34 5.33 -2.68 5.66 -2 6 C-1.855625 5.38125 -1.71125 4.7625 -1.5625 4.125 C-1 2 -1 2 0 0 Z " fill="#0B5FC5" transform="translate(224,278)"/>
<path d="M0 0 C0.33 0 0.66 0 1 0 C1.66759955 6.40895572 -0.12471874 9.93908029 -4 15 C-6.3125 17.5 -6.3125 17.5 -8 19 C-8.66 18.67 -9.32 18.34 -10 18 C-9.34 16.35 -8.68 14.7 -8 13 C-6.68 13 -5.36 13 -4 13 C-3.7834375 12.1028125 -3.7834375 12.1028125 -3.5625 11.1875 C-3.1127561 9.43849596 -2.57107659 7.71322977 -2 6 C-1.34 6 -0.68 6 0 6 C0 4.02 0 2.04 0 0 Z " fill="#1B76AF" transform="translate(378,308)"/>
<path d="M0 0 C3.93235904 4.49412462 8 9.84759838 8 16 C7.34 15.34 6.68 14.68 6 14 C5.01 14.33 4.02 14.66 3 15 C0.875 7.375 0.875 7.375 2 4 C1.34 4 0.68 4 0 4 C0 2.68 0 1.36 0 0 Z " fill="#0F7CC0" transform="translate(152,374)"/>
<path d="M0 0 C0.66 0.99 1.32 1.98 2 3 C1.67 3.33 1.34 3.66 1 4 C1.66 6.31 2.32 8.62 3 11 C2.01 11.495 2.01 11.495 1 12 C-1.31 9.03 -3.62 6.06 -6 3 C-4.68 2.67 -3.36 2.34 -2 2 C-1.34 1.34 -0.68 0.68 0 0 Z " fill="#1E8ED7" transform="translate(382,224)"/>
<path d="M0 0 C1.0828125 0.495 1.0828125 0.495 2.1875 1 C5.01697427 2.00603529 7.02895466 2.16977402 10 2 C10 3.65 10 5.3 10 7 C10.66 7.33 11.32 7.66 12 8 C11.01 8.495 11.01 8.495 10 9 C8.51444617 8.07265428 7.03672494 7.13275187 5.5625 6.1875 C4.73878906 5.66542969 3.91507812 5.14335937 3.06640625 4.60546875 C1 3 1 3 0 0 Z " fill="#2685C5" transform="translate(336,190)"/>
<path d="M0 0 C-3.25183672 1.76141156 -6.60255784 2.94711636 -10.09765625 4.12109375 C-12.21715595 5.10032873 -13.45360548 6.2705432 -15 8 C-15.04254356 6.00045254 -15.04080783 3.99958364 -15 2 C-12.10314264 -0.89685736 -3.85727068 -0.09643177 0 0 Z " fill="#3992CA" transform="translate(467,351)"/>
<path d="M0 0 C1.65 0 3.3 0 5 0 C5.0825 0.845625 5.165 1.69125 5.25 2.5625 C5.91703374 5.61973796 6.5242806 7.06936868 8.125 9.625 C10 13 10 13 9.6171875 15.2109375 C9.41351563 15.80132812 9.20984375 16.39171875 9 17 C7.68718428 14.5418348 6.37473388 12.08347578 5.0625 9.625 C4.68931641 8.92632812 4.31613281 8.22765625 3.93164062 7.5078125 C1.11328125 2.2265625 1.11328125 2.2265625 0 0 Z " fill="#2C80C2" transform="translate(384,237)"/>
<path d="M0 0 C4.23429756 1.31061591 8.07407404 2.94356259 12 5 C11.01 5.99 10.02 6.98 9 8 C6.0625 6.6875 6.0625 6.6875 3 5 C2.67 4.01 2.34 3.02 2 2 C1.34 2 0.68 2 0 2 C0 1.34 0 0.68 0 0 Z " fill="#147CC4" transform="translate(199,424)"/>
<path d="M0 0 C0.33 0.66 0.66 1.32 1 2 C2.64551962 2.71727778 4.31422289 3.38325228 6 4 C6.66 4.33 7.32 4.66 8 5 C8.33 4.34 8.66 3.68 9 3 C9.99 3.33 10.98 3.66 12 4 C12 4.66 12 5.32 12 6 C11.01 6 10.02 6 9 6 C9 6.66 9 7.32 9 8 C8.01 8.33 7.02 8.66 6 9 C4.99105628 8.07213211 3.99309093 7.13231567 3 6.1875 C2.1646875 5.40439453 2.1646875 5.40439453 1.3125 4.60546875 C0 3 0 3 0 0 Z " fill="#3294CC" transform="translate(174,324)"/>
<path d="M0 0 C0.33 0 0.66 0 1 0 C0.47606294 5.86809507 -0.76108858 10.54873741 -3 16 C-3.33 16 -3.66 16 -4 16 C-4.33 12.04 -4.66 8.08 -5 4 C-3.35 4 -1.7 4 0 4 C0 2.68 0 1.36 0 0 Z " fill="#0A63C5" transform="translate(312,236)"/>
<path d="M0 0 C0.66 1.32 1.32 2.64 2 4 C1.01 4.33 0.02 4.66 -1 5 C-1.04898438 5.71027344 -1.09796875 6.42054688 -1.1484375 7.15234375 C-1.22320312 8.07144531 -1.29796875 8.99054688 -1.375 9.9375 C-1.47941406 11.31228516 -1.47941406 11.31228516 -1.5859375 12.71484375 C-1.72257813 13.46894531 -1.85921875 14.22304688 -2 15 C-2.99 15.495 -2.99 15.495 -4 16 C-4.34963286 10.17278563 -4.19639756 6.11423609 -1 1 C-0.67 0.67 -0.34 0.34 0 0 Z " fill="#2D93CB" transform="translate(170,299)"/>
<path d="M0 0 C0.66 0 1.32 0 2 0 C2.66 2.97 3.32 5.94 4 9 C3.34 9 2.68 9 2 9 C1.67 8.01 1.34 7.02 1 6 C-0.32 6 -1.64 6 -3 6 C-2.42655063 3.13275314 -2.1385485 2.1385485 0 0 Z " fill="#0885C9" transform="translate(378,391)"/>
<path d="M0 0 C0.66 0.66 1.32 1.32 2 2 C0.88315758 4.81599574 -0.24296206 7.6276201 -1.375 10.4375 C-1.69210937 11.23994141 -2.00921875 12.04238281 -2.3359375 12.86914062 C-2.6453125 13.63291016 -2.9546875 14.39667969 -3.2734375 15.18359375 C-3.55622559 15.89056396 -3.83901367 16.59753418 -4.13037109 17.32592773 C-5 19 -5 19 -7 20 C-6.28815082 17.86445245 -5.57614393 15.72895955 -4.86328125 13.59375 C-4.29504077 11.88645733 -3.72985322 10.17814502 -3.16796875 8.46875 C-2.90628906 7.6746875 -2.64460938 6.880625 -2.375 6.0625 C-2.01535156 4.96615234 -2.01535156 4.96615234 -1.6484375 3.84765625 C-1 2 -1 2 0 0 Z " fill="#33719B" transform="translate(267,367)"/>
<path d="M0 0 C0.33 0 0.66 0 1 0 C1 8 1 8 0 11 C0.66 11.33 1.32 11.66 2 12 C0.35 12.33 -1.3 12.66 -3 13 C-2.52060632 8.28596212 -2.03165952 4.33420699 0 0 Z " fill="#1785CB" transform="translate(398,354)"/>
<path d="M0 0 C0.99 0.33 1.98 0.66 3 1 C0.59983652 5.94151304 -2.52273027 8.04331244 -7 11 C-7 10.01 -7 9.02 -7 8 C-6.34 8 -5.68 8 -5 8 C-5 7.34 -5 6.68 -5 6 C-4.34 6 -3.68 6 -3 6 C-3 5.34 -3 4.68 -3 4 C-3.66 3.67 -4.32 3.34 -5 3 C-4.34 2.67 -3.68 2.34 -3 2 C-2.01 2.33 -1.02 2.66 0 3 C0 2.01 0 1.02 0 0 Z " fill="#2276B0" transform="translate(363,328)"/>
<path d="M0 0 C0 3.10551666 -0.5393715 4.35261084 -2 7 C-2.99 7 -3.98 7 -5 7 C-4.67 8.32 -4.34 9.64 -4 11 C-4.66 11 -5.32 11 -6 11 C-6 10.34 -6 9.68 -6 9 C-7.65 9.66 -9.3 10.32 -11 11 C-7.33333333 7.33333333 -3.66666667 3.66666667 0 0 Z " fill="#40A2D4" transform="translate(347,311)"/>
<path d="M0 0 C0.66 0 1.32 0 2 0 C1.54857225 1.77260631 1.08859477 3.5430368 0.625 5.3125 C0.36976563 6.29863281 0.11453125 7.28476562 -0.1484375 8.30078125 C-1 11 -1 11 -3 14 C-3.33 11.69 -3.66 9.38 -4 7 C-3.34 7 -2.68 7 -2 7 C-1.855625 6.030625 -1.71125 5.06125 -1.5625 4.0625 C-1 1 -1 1 0 0 Z " fill="#0B57C1" transform="translate(303,262)"/>
<path d="M0 0 C0.99 0 1.98 0 3 0 C2.66960927 3.08364682 2.02342865 3.97847097 -0.3125 6.125 C-2.50891569 7.65738304 -4.56088907 8.9159507 -7 10 C-7 9.01 -7 8.02 -7 7 C-5.35 6.67 -3.7 6.34 -2 6 C-2 4.68 -2 3.36 -2 2 C-1.34 2 -0.68 2 0 2 C0 1.34 0 0.68 0 0 Z " fill="#2A77B6" transform="translate(338,351)"/>
<path d="M0 0 C0.33 0 0.66 0 1 0 C1.05382106 2.62527189 1.09358313 5.24944713 1.125 7.875 C1.14175781 8.62136719 1.15851563 9.36773437 1.17578125 10.13671875 C1.1933959 12.09194461 1.10320189 14.04742021 1 16 C0.34 16.66 -0.32 17.32 -1 18 C-2.13673517 13.77897638 -1.79839993 10.47303491 -1.0625 6.1875 C-0.86785156 5.02605469 -0.67320312 3.86460937 -0.47265625 2.66796875 C-0.31667969 1.78753906 -0.16070312 0.90710938 0 0 Z " fill="#037CC6" transform="translate(405,328)"/>
<path d="M0 0 C0.66 0.33 1.32 0.66 2 1 C-2.40608044 4.96547239 -6.62277718 7.49681007 -12 10 C-12 9.34 -12 8.68 -12 8 C-11.34 8 -10.68 8 -10 8 C-9.9175 7.37480469 -9.835 6.74960938 -9.75 6.10546875 C-9 4 -9 4 -7.1875 2.98828125 C-6.465625 2.76527344 -5.74375 2.54226562 -5 2.3125 C-2.25399382 1.56825097 -2.25399382 1.56825097 0 0 Z " fill="#2479B9" transform="translate(187,205)"/>
<path d="M0 0 C0.66 1.32 1.32 2.64 2 4 C-1.63 4 -5.26 4 -9 4 C-8 1 -8 1 -6.1875 -0.25 C-3.58019256 -1.14393398 -2.49382541 -1.16378519 0 0 Z " fill="#1887C8" transform="translate(178,468)"/>
<path d="M0 0 C3.79379058 1.49041773 5.68343758 3.69062512 8 7 C8 7.66 8 8.32 8 9 C6.35 9 4.7 9 3 9 C2 7 2 7 2 3 C1.34 2.67 0.68 2.34 0 2 C0 1.34 0 0.68 0 0 Z " fill="#0877BE" transform="translate(368,294)"/>
<path d="M0 0 C3.98175544 2.10148204 6.35039045 4.36905358 9 8 C6.36 7.34 3.72 6.68 1 6 C0.67 4.02 0.34 2.04 0 0 Z " fill="#0B74BF" transform="translate(353,280)"/>
<path d="M0 0 C0.66 0 1.32 0 2 0 C0.9318153 5.11365014 -0.23107476 10.07227969 -2 15 C-2.33 15 -2.66 15 -3 15 C-3 11.7 -3 8.4 -3 5 C-2.01 5 -1.02 5 0 5 C0 3.35 0 1.7 0 0 Z " fill="#0855CE" transform="translate(288,304)"/>
<path d="M0 0 C0.33 0.66 0.66 1.32 1 2 C0.5359375 3.1446875 0.5359375 3.1446875 0.0625 4.3125 C-1.05613741 7.14199462 -1.15824093 8.99342224 -1 12 C-1 12.99 -1 13.98 -1 15 C-2.5625 13.9375 -2.5625 13.9375 -4 12 C-3.82176474 7.18764791 -2.74373002 3.93665611 0 0 Z " fill="#55A1D4" transform="translate(317,262)"/>
<path d="M0 0 C2.9375 0.375 2.9375 0.375 6 1 C6.33 1.66 6.66 2.32 7 3 C4.69 3.66 2.38 4.32 0 5 C-0.99 4.01 -1.98 3.02 -3 2 C-2.01 2 -1.02 2 0 2 C0 1.34 0 0.68 0 0 Z " fill="#1E92D1" transform="translate(323,483)"/>
<path d="M0 0 C2.99324263 1.0975223 3.84610901 1.67682892 5.25 4.625 C5.4975 5.40875 5.745 6.1925 6 7 C5.34 7 4.68 7 4 7 C4 7.99 4 8.98 4 10 C3.01 9.67 2.02 9.34 1 9 C1.20625 8.2575 1.4125 7.515 1.625 6.75 C2.04408751 3.67669159 1.61949011 2.57213134 0 0 Z " fill="#056ECF" transform="translate(207,323)"/>
<path d="M0 0 C0.99 0 1.98 0 3 0 C2.55005243 1.79379098 2.08975857 3.58498928 1.625 5.375 C1.36976563 6.37273437 1.11453125 7.37046875 0.8515625 8.3984375 C0 11 0 11 -2 13 C-2.09184477 8.22407176 -2.1505305 4.30106101 0 0 Z " fill="#0953B7" transform="translate(292,291)"/>
<path d="M0 0 C1.09570312 0.00902344 2.19140625 0.01804688 3.3203125 0.02734375 C4.16335938 0.03894531 5.00640625 0.05054688 5.875 0.0625 C5.875 0.3925 5.875 0.7225 5.875 1.0625 C-5.64664009 3.35862756 -5.64664009 3.35862756 -11.125 3.0625 C-6.92562487 0.26291658 -5.02794562 -0.05348878 0 0 Z " fill="#0C5CB6" transform="translate(254.125,176.9375)"/>
<path d="M0 0 C0.66 0.66 1.32 1.32 2 2 C1.67 2.99 1.34 3.98 1 5 C0.34 5 -0.32 5 -1 5 C-1 5.66 -1 6.32 -1 7 C-2.8125 6.8125 -2.8125 6.8125 -5 6 C-6.75 3.4375 -6.75 3.4375 -8 1 C-7.401875 1.33 -6.80375 1.66 -6.1875 2 C-3.94613529 3.20787988 -3.94613529 3.20787988 -1 3 C-0.67 2.01 -0.34 1.02 0 0 Z " fill="#2C94CC" transform="translate(318,357)"/>
<path d="M0 0 C0.66 0 1.32 0 2 0 C1.34 1.65 0.68 3.3 0 5 C-0.66 5 -1.32 5 -2 5 C-2 6.65 -2 8.3 -2 10 C-2.99 10 -3.98 10 -5 10 C-4.67 8.68 -4.34 7.36 -4 6 C-4.66 5.67 -5.32 5.34 -6 5 C-5.34 5 -4.68 5 -4 5 C-3.67 4.34 -3.34 3.68 -3 3 C-2.34 3.33 -1.68 3.66 -1 4 C-0.67 2.68 -0.34 1.36 0 0 Z " fill="#0D83CD" transform="translate(150,245)"/>
<path d="M0 0 C0.66 0.33 1.32 0.66 2 1 C0.35 5.62 -1.3 10.24 -3 15 C-3.33 15 -3.66 15 -4 15 C-4 12.69 -4 10.38 -4 8 C-3.01 7.67 -2.02 7.34 -1 7 C-0.67 4.69 -0.34 2.38 0 0 Z " fill="#0846BB" transform="translate(273,350)"/>
<path d="M0 0 C0.66 1.32 1.32 2.64 2 4 C1.01 4 0.02 4 -1 4 C-0.938125 5.918125 -0.938125 5.918125 -0.875 7.875 C-0.8046875 10.0546875 -0.8046875 10.0546875 -1 12 C-1.66 12.66 -2.32 13.32 -3 14 C-3.32374517 8.49633208 -3.53286034 4.56327794 0 0 Z " fill="#2289CE" transform="translate(312,343)"/>
<path d="M0 0 C1.65 0.33 3.3 0.66 5 1 C5 1.99 5 2.98 5 4 C2.5 6.1875 2.5 6.1875 0 8 C-1.32 7.34 -2.64 6.68 -4 6 C-2.35 6 -0.7 6 1 6 C1 5.01 1 4.02 1 3 C0.34 2.67 -0.32 2.34 -1 2 C-0.67 1.34 -0.34 0.68 0 0 Z " fill="#0F72C4" transform="translate(351,336)"/>
<path d="M0 0 C0 2.33333333 0 4.66666667 0 7 C-0.5775 7.12375 -1.155 7.2475 -1.75 7.375 C-4.02335767 8.00648824 -5.9253529 8.88858191 -8 10 C-5.61820737 6.25718301 -3.25524265 3.02272532 0 0 Z " fill="#2D96D2" transform="translate(326,330)"/>
<path d="M0 0 C1 3 1 3 1 7 C-1 9.25 -1 9.25 -3 11 C-3.75 8.875 -3.75 8.875 -4 6 C-2.0625 2.6875 -2.0625 2.6875 0 0 Z " fill="#2897D5" transform="translate(322,255)"/>
<path d="M0 0 C0.33 0.99 0.66 1.98 1 3 C1.66 3 2.32 3 3 3 C2.67 4.32 2.34 5.64 2 7 C1.67 6.67 1.34 6.34 1 6 C0.34 7.98 -0.32 9.96 -1 12 C-1.66 11.67 -2.32 11.34 -3 11 C-2.01 7.37 -1.02 3.74 0 0 Z " fill="#359CD4" transform="translate(281,249)"/>
<path d="M0 0 C2.31 0.33 4.62 0.66 7 1 C6.75 2.875 6.75 2.875 6 5 C3.9375 6.25 3.9375 6.25 2 7 C1.34 4.69 0.68 2.38 0 0 Z " fill="#0A84CA" transform="translate(159,224)"/>
<path d="M0 0 C4.66666667 2.33333333 4.66666667 2.33333333 6 5 C5.0925 4.814375 4.185 4.62875 3.25 4.4375 C0.31685676 4.04265379 -1.2644657 4.05308428 -4 5 C-3.6875 3.0625 -3.6875 3.0625 -3 1 C-2.01 0.67 -1.02 0.34 0 0 Z " fill="#1484CB" transform="translate(193,419)"/>
<path d="M0 0 C0.66 0.33 1.32 0.66 2 1 C2 1.66 2 2.32 2 3 C-0.61373889 5.53906064 -2.12889581 6.92256852 -5.8125 7.25 C-6.534375 7.1675 -7.25625 7.085 -8 7 C-5.4837822 4.39391727 -2.94865641 2.10618315 0 0 Z " fill="#42A3D7" transform="translate(359,411)"/>
<path d="M0 0 C1.12894876 0.93274109 2.25300876 1.87140122 3.375 2.8125 C4.00148437 3.33457031 4.62796875 3.85664063 5.2734375 4.39453125 C7 6 7 6 9 9 C6 9 6 9 4.39453125 7.5390625 C3.61142578 6.59160156 3.61142578 6.59160156 2.8125 5.625 C2.28269531 4.99851562 1.75289062 4.37203125 1.20703125 3.7265625 C0 2 0 2 0 0 Z " fill="#64A2CA" transform="translate(197,311)"/>
<path d="M0 0 C1.65 0 3.3 0 5 0 C5 0.66 5 1.32 5 2 C5.99 2.33 6.98 2.66 8 3 C7.67 3.66 7.34 4.32 7 5 C4.625 4.75 4.625 4.75 2 4 C0.6875 1.9375 0.6875 1.9375 0 0 Z " fill="#3392CE" transform="translate(343,302)"/>
<path d="M0 0 C2.475 0.495 2.475 0.495 5 1 C5 1.66 5 2.32 5 3 C5.99 3.33 6.98 3.66 8 4 C8.33 4.99 8.66 5.98 9 7 C6 7 6 7 4.39453125 5.46875 C3.87246094 4.8190625 3.35039062 4.169375 2.8125 3.5 C2.28269531 2.8503125 1.75289063 2.200625 1.20703125 1.53125 C0.80871094 1.0259375 0.41039062 0.520625 0 0 Z " fill="#1CA3D2" transform="translate(318,279)"/>
<path d="M0 0 C1.65 1.65 3.3 3.3 5 5 C4.67 5.99 4.34 6.98 4 8 C2.0625 7.25 2.0625 7.25 0 6 C-0.8125 4 -0.8125 4 -1 2 C-0.67 1.34 -0.34 0.68 0 0 Z " fill="#2485C1" transform="translate(230,256)"/>
<path d="M0 0 C1.26237731 2.52475462 1.09856404 4.31200466 1.0625 7.125 C1.05347656 8.03507813 1.04445313 8.94515625 1.03515625 9.8828125 C1.02355469 10.58148438 1.01195312 11.28015625 1 12 C0.01 11.67 -0.98 11.34 -2 11 C-2 7.7 -2 4.4 -2 1 C-1.34 0.67 -0.68 0.34 0 0 Z " fill="#1A82C4" transform="translate(434,208)"/>
<path d="M0 0 C1.24546405 2.49092811 0.7767578 3.41080733 0 6 C-2.31 6.66 -4.62 7.32 -7 8 C-6.02133662 6.85373678 -5.04205413 5.70800212 -4.0625 4.5625 C-3.51722656 3.92441406 -2.97195313 3.28632813 -2.41015625 2.62890625 C-1.63204305 1.73008851 -0.84063472 0.84063472 0 0 Z " fill="#47A8D4" transform="translate(367,403)"/>
<path d="M0 0 C1 3 1 3 1 6 C0.01 6.66 -0.98 7.32 -2 8 C-3.32 7.67 -4.64 7.34 -6 7 C-4.02 4.69 -2.04 2.38 0 0 Z " fill="#3A9DD4" transform="translate(374,395)"/>
<path d="M0 0 C2.52394612 3.12488567 4.39701907 6.31314387 6 10 C5.67 10.66 5.34 11.32 5 12 C4.38125 11.01 3.7625 10.02 3.125 9 C2.42375 8.01 1.7225 7.02 1 6 C0.34 6 -0.32 6 -1 6 C-0.67 4.02 -0.34 2.04 0 0 Z " fill="#2277AD" transform="translate(146,362)"/>
<path d="M0 0 C0.33 0 0.66 0 1 0 C1 1.65 1 3.3 1 5 C-0.98 5.99 -0.98 5.99 -3 7 C-3.99 6.34 -4.98 5.68 -6 5 C-5.67 4.01 -5.34 3.02 -5 2 C-5 2.66 -5 3.32 -5 4 C-1.72226496 3.24849977 -1.72226496 3.24849977 0 0 Z " fill="#0581C8" transform="translate(316,353)"/>
<path d="M0 0 C0.66 0.33 1.32 0.66 2 1 C1.40075776 5.19469571 0.42500059 9.00999834 -1 13 C-1.33 13 -1.66 13 -2 13 C-2.19294408 8.17639811 -1.75747614 4.50353262 0 0 Z " fill="#0C56B3" transform="translate(298,275)"/>
<path d="M0 0 C2.96404505 2.80804268 5.44499019 5.18315774 7 9 C6.01 9 5.02 9 4 9 C4 8.01 4 7.02 4 6 C3.01 6.33 2.02 6.66 1 7 C0.67 4.69 0.34 2.38 0 0 Z " fill="#1291D4" transform="translate(443,421)"/>
<path d="M0 0 C2 1.375 2 1.375 4 3 C4 3.66 4 4.32 4 5 C3.34 5 2.68 5 2 5 C1.67 5.66 1.34 6.32 1 7 C-0.5 5.625 -0.5 5.625 -2 4 C-2 3.34 -2 2.68 -2 2 C-1.34 2 -0.68 2 0 2 C0 1.34 0 0.68 0 0 Z " fill="#198CCE" transform="translate(180,408)"/>
<path d="M0 0 C0.66 0.33 1.32 0.66 2 1 C1.60196439 3.88575819 1.20990931 4.82189513 -1.0625 6.75 C-1.701875 7.1625 -2.34125 7.575 -3 8 C-3 6.68 -3 5.36 -3 4 C-3.66 3.67 -4.32 3.34 -5 3 C-4.01 3 -3.02 3 -2 3 C-1.34 2.01 -0.68 1.02 0 0 Z " fill="#0A67DB" transform="translate(329,358)"/>
<path d="M0 0 C0.66 0 1.32 0 2 0 C2.66 2.64 3.32 5.28 4 8 C2.68 8.33 1.36 8.66 0 9 C0 6.03 0 3.06 0 0 Z " fill="#287BCF" transform="translate(140,348)"/>
<path d="M0 0 C0 0.66 0 1.32 0 2 C-0.66 2 -1.32 2 -2 2 C-2 2.66 -2 3.32 -2 4 C-3.32 4 -4.64 4 -6 4 C-6.66 4.66 -7.32 5.32 -8 6 C-8.66 5.34 -9.32 4.68 -10 4 C-3.375 0 -3.375 0 0 0 Z " fill="#1988CE" transform="translate(193,282)"/>
<path d="M0 0 C0 1.32 0 2.64 0 4 C-2.64 4 -5.28 4 -8 4 C-8 3.34 -8 2.68 -8 2 C-3.61016949 -1.20338983 -3.61016949 -1.20338983 0 0 Z " fill="#1E9ADC" transform="translate(228,129)"/>
<path d="M0 0 C3.00617269 3.00617269 2.59585316 5.82381598 3 10 C2.01 10.495 2.01 10.495 1 11 C0.63890458 9.35567294 0.28629924 7.7094792 -0.0625 6.0625 C-0.25972656 5.14597656 -0.45695312 4.22945313 -0.66015625 3.28515625 C-0.77230469 2.53105469 -0.88445312 1.77695312 -1 1 C-0.67 0.67 -0.34 0.34 0 0 Z " fill="#198CD4" transform="translate(108,392)"/>
<path d="M0 0 C0.33 0.66 0.66 1.32 1 2 C1.66 2.33 2.32 2.66 3 3 C0.03 5.475 0.03 5.475 -3 8 C-3.36923077 3.44615385 -3.36923077 3.44615385 -1.5 1.1875 C-1.005 0.795625 -0.51 0.40375 0 0 Z " fill="#0D5DC1" transform="translate(205,296)"/>
<path d="M0 0 C-0.3125 2.375 -0.3125 2.375 -1 5 C-1.99 5.66 -2.98 6.32 -4 7 C-4 6.34 -4 5.68 -4 5 C-4.66 4.67 -5.32 4.34 -6 4 C-2.25 0 -2.25 0 0 0 Z " fill="#0A6BD7" transform="translate(233,272)"/>
<path d="M0 0 C0.99 0 1.98 0 3 0 C3 1.98 3 3.96 3 6 C2.01 6 1.02 6 0 6 C-0.38218767 4.34385343 -0.71395102 2.67542976 -1 1 C-0.67 0.67 -0.34 0.34 0 0 Z " fill="#0762D6" transform="translate(234,266)"/>
<path d="M0 0 C0.33 0.99 0.66 1.98 1 3 C-0.65 3.66 -2.3 4.32 -4 5 C-4.33 3.68 -4.66 2.36 -5 1 C-2 0 -2 0 0 0 Z " fill="#1B8FD6" transform="translate(163,473)"/>
<path d="M0 0 C5.75 0.875 5.75 0.875 8 2 C7.67 2.66 7.34 3.32 7 4 C6.01 3.67 5.02 3.34 4 3 C2.00038436 2.96079185 -0.00049364 2.95556653 -2 3 C-1.34 2.01 -0.68 1.02 0 0 Z " fill="#0E7CC0" transform="translate(224,436)"/>
<path d="M0 0 C4.95 1.98 4.95 1.98 10 4 C5.80104745 5.04973814 3.20594226 4.72795155 -1 4 C-0.67 2.68 -0.34 1.36 0 0 Z " fill="#1178BF" transform="translate(214,431)"/>
<path d="M0 0 C0.99 0.33 1.98 0.66 3 1 C4.1875 4.0625 4.1875 4.0625 5 7 C4.01 7 3.02 7 2 7 C0.5393715 4.35261084 0 3.10551666 0 0 Z " fill="#0D95DC" transform="translate(101,382)"/>
<path d="M0 0 C2.88437779 1.29299694 4.87219421 2.65941363 7 5 C4.69 5 2.38 5 0 5 C0 3.35 0 1.7 0 0 Z " fill="#1789C5" transform="translate(214,330)"/>
<path d="M0 0 C0.66 0.33 1.32 0.66 2 1 C-0.31 3.64 -2.62 6.28 -5 9 C-6 6 -6 6 -5 3 C-2.5625 1.25 -2.5625 1.25 0 0 Z " fill="#3876A3" transform="translate(171,220)"/>
<path d="M0 0 C1.09566959 3.28700877 1.45243698 5.01029411 0 8.1875 C-0.495 9.0846875 -0.495 9.0846875 -1 10 C-2.1875 8.375 -2.1875 8.375 -3 6 C-1.625 2.75 -1.625 2.75 0 0 Z " fill="#087DC7" transform="translate(393,367)"/>
<path d="M0 0 C0.99 0 1.98 0 3 0 C3.33 1.32 3.66 2.64 4 4 C1.39417629 4.93065133 0.35801776 5.14917407 -2.25 4.0625 C-2.8275 3.711875 -3.405 3.36125 -4 3 C-2.68 2.67 -1.36 2.34 0 2 C0 1.34 0 0.68 0 0 Z " fill="#0982CA" transform="translate(218,362)"/>
<path d="M0 0 C0.66 0 1.32 0 2 0 C2.33 1.98 2.66 3.96 3 6 C2.01 6.66 1.02 7.32 0 8 C-1.09658936 4.71023192 -0.79953138 3.28696233 0 0 Z " fill="#0868C7" transform="translate(138,342)"/>
<path d="M0 0 C0.33 0.99 0.66 1.98 1 3 C2.65 3.33 4.3 3.66 6 4 C5.67 4.66 5.34 5.32 5 6 C2.36 5.01 -0.28 4.02 -3 3 C-3 2.34 -3 1.68 -3 1 C-2.01 0.67 -1.02 0.34 0 0 Z " fill="#2E77C6" transform="translate(315,180)"/>
<path d="M0 0 C0 3 0 3 -2 5.1875 C-2.66 5.785625 -3.32 6.38375 -4 7 C-4.66 6.67 -5.32 6.34 -6 6 C-5.67 5.34 -5.34 4.68 -5 4 C-5.99 3.67 -6.98 3.34 -8 3 C-5.36 2.01 -2.72 1.02 0 0 Z " fill="#108CCF" transform="translate(377,144)"/>
<path d="M0 0 C0.78375 0.185625 1.5675 0.37125 2.375 0.5625 C4.97089775 1.25962266 4.97089775 1.25962266 7 0 C6.34 1.32 5.68 2.64 5 4 C3.68 4 2.36 4 1 4 C0.67 2.68 0.34 1.36 0 0 Z " fill="#1A75AD" transform="translate(220,361)"/>
<path d="M0 0 C0.66 0.33 1.32 0.66 2 1 C0.68 3.64 -0.64 6.28 -2 9 C-2.33 9 -2.66 9 -3 9 C-3 7.02 -3 5.04 -3 3 C-2.34 3 -1.68 3 -1 3 C-0.67 2.01 -0.34 1.02 0 0 Z " fill="#4782AD" transform="translate(151,247)"/>
<path d="M0 0 C1.65 0 3.3 0 5 0 C5 2.31 5 4.62 5 7 C1.125 2.25 1.125 2.25 0 0 Z " fill="#2888C7" transform="translate(384,237)"/>
<path d="M0 0 C3.91606575 0.53400897 6.39338934 1.19669467 10 3 C7.03 3 4.06 3 1 3 C0.67 2.01 0.34 1.02 0 0 Z " fill="#2A83BD" transform="translate(237,178)"/>
<path d="M0 0 C1.32 0.66 2.64 1.32 4 2 C3.01 3.485 3.01 3.485 2 5 C1.01 4.67 0.02 4.34 -1 4 C-0.67 2.68 -0.34 1.36 0 0 Z " fill="#2792D9" transform="translate(425,483)"/>
<path d="M0 0 C1.32 0.33 2.64 0.66 4 1 C4 1.66 4 2.32 4 3 C5.32 3.33 6.64 3.66 8 4 C7.34 4 6.68 4 6 4 C6 4.66 6 5.32 6 6 C5.34 6 4.68 6 4 6 C2.61061923 4.03852126 1.2739589 2.03833424 0 0 Z " fill="#2692D0" transform="translate(88,355)"/>
<path d="M0 0 C2.95409701 1.37154504 5.44008376 2.98863724 8 5 C7.67 5.99 7.34 6.98 7 8 C5.83035398 6.8572081 4.66435444 5.71068285 3.5 4.5625 C2.8503125 3.92441406 2.200625 3.28632813 1.53125 2.62890625 C0 1 0 1 0 0 Z " fill="#0F6EAC" transform="translate(194,345)"/>
<path d="M0 0 C0.66 0 1.32 0 2 0 C1.34 2.97 0.68 5.94 0 9 C-0.33 9 -0.66 9 -1 9 C-1.33 6.69 -1.66 4.38 -2 2 C-1.34 2 -0.68 2 0 2 C0 1.34 0 0.68 0 0 Z " fill="#0959B3" transform="translate(306,252)"/>
<path d="M0 0 C1.875 0.1875 1.875 0.1875 4 1 C5.25 3.5625 5.25 3.5625 6 6 C5.01 6.495 5.01 6.495 4 7 C2.02 3.535 2.02 3.535 0 0 Z " fill="#2380C0" transform="translate(379,229)"/>
<path d="M0 0 C2.31 0.33 4.62 0.66 7 1 C5.1875 2.5625 5.1875 2.5625 3 4 C2.01 3.67 1.02 3.34 0 3 C0 2.01 0 1.02 0 0 Z " fill="#1586CD" transform="translate(169,147)"/>
</svg>
