<?xml version="1.0" standalone="no"?>
<!DOCTYPE svg PUBLIC "-//W3C//DTD SVG 20010904//EN"
 "http://www.w3.org/TR/2001/REC-SVG-20010904/DTD/svg10.dtd">
<svg version="1.0" xmlns="http://www.w3.org/2000/svg"
 width="543.000000pt" height="567.000000pt" viewBox="0 0 543.000000 567.000000"
 preserveAspectRatio="xMidYMid meet">

<g transform="translate(0.000000,567.000000) scale(0.100000,-0.100000)"
fill="#3B82F6" stroke="none">
<path d="M2505 4923 c-98 -21 -116 -53 -161 -272 -49 -247 -67 -279 -162 -306
-31 -9 -64 -19 -72 -22 -8 -3 -17 -7 -20 -8 -3 -1 -18 -7 -35 -14 -16 -7 -61
-24 -100 -38 -38 -14 -95 -38 -125 -53 -51 -25 -58 -26 -105 -15 -27 6 -77 29
-110 50 -76 49 -228 157 -235 166 -3 4 -24 12 -47 19 -53 16 -90 3 -148 -54
-99 -99 -213 -205 -252 -234 -54 -42 -103 -117 -103 -157 0 -29 75 -163 106
-190 6 -5 42 -57 80 -115 88 -136 89 -154 18 -300 -28 -58 -61 -136 -74 -175
-34 -106 -62 -162 -90 -179 -14 -8 -57 -20 -95 -26 -39 -7 -92 -18 -120 -26
-27 -7 -85 -21 -128 -29 -177 -36 -177 -36 -177 -366 0 -324 3 -332 145 -358
90 -17 315 -71 363 -88 23 -8 42 -20 42 -26 0 -6 6 -18 14 -26 8 -9 26 -52 40
-96 15 -44 52 -132 83 -195 43 -87 56 -126 57 -160 0 -52 -12 -72 -151 -254
-140 -183 -137 -218 30 -376 61 -58 151 -144 199 -192 86 -86 89 -88 136 -88
46 0 58 7 196 104 81 58 167 112 191 122 65 24 68 23 360 -106 22 -9 72 -25
110 -34 39 -10 79 -25 90 -34 32 -26 60 -114 90 -277 32 -175 44 -207 94 -237
35 -22 44 -23 276 -23 212 0 244 2 273 18 46 25 66 64 86 165 10 48 21 101 26
117 4 17 13 57 20 90 25 125 48 154 142 184 70 22 325 126 342 140 18 14 98 6
140 -14 22 -10 73 -43 114 -72 41 -30 91 -62 111 -73 20 -10 51 -30 70 -44 26
-19 47 -26 81 -26 59 0 92 26 352 277 95 92 133 154 122 200 -8 37 -59 128
-99 178 -18 22 -60 79 -94 128 -82 115 -84 145 -18 267 25 47 62 126 82 175
53 129 74 170 97 184 18 11 133 37 273 62 28 5 86 19 129 31 123 35 121 30
121 358 0 241 -2 268 -18 294 -29 43 -60 53 -412 126 -113 23 -128 39 -180
193 -21 61 -60 156 -87 210 -60 123 -62 156 -13 223 20 27 52 74 73 104 20 30
49 71 63 90 44 58 69 117 69 162 0 59 -37 112 -147 210 -48 44 -102 94 -118
112 -17 17 -56 55 -87 84 -53 48 -60 52 -107 52 -37 0 -57 -6 -78 -23 -81 -67
-171 -132 -240 -174 -69 -41 -85 -46 -133 -46 -37 1 -67 8 -91 22 -51 30 -238
107 -308 127 -62 17 -102 47 -126 94 -13 27 -45 155 -71 290 -28 147 -46 165
-186 186 -86 13 -336 18 -383 7z m462 -1043 c251 -41 492 -162 677 -340 120
-115 205 -231 276 -375 102 -209 141 -371 142 -595 1 -356 -129 -668 -395
-947 -163 -171 -420 -305 -700 -365 -150 -32 -391 -32 -537 0 -266 60 -472
175 -676 377 -263 262 -394 569 -394 926 0 319 113 616 328 863 233 268 564
430 957 470 59 6 250 -2 322 -14z"/>
<path d="M2913 3383 c-21 -21 -98 -220 -203 -523 -38 -107 -100 -285 -140
-395 -40 -110 -83 -238 -97 -285 -13 -47 -47 -152 -75 -233 -44 -127 -49 -150
-37 -162 21 -21 186 -30 219 -13 19 10 38 47 82 158 31 80 69 183 84 230 14
47 61 184 104 305 177 497 291 841 288 870 -2 25 -9 32 -40 42 -21 7 -67 15
-102 19 -55 6 -66 4 -83 -13z"/>
<path d="M2057 3008 c-315 -297 -375 -360 -387 -405 -22 -88 -13 -102 248
-365 130 -131 247 -241 260 -245 31 -7 66 19 109 81 26 38 33 58 33 95 0 50
-12 65 -135 172 -22 19 -82 78 -132 130 l-93 96 162 149 c275 253 269 245 228
322 -33 63 -87 112 -122 112 -11 0 -84 -61 -171 -142z"/>
<path d="M3196 3065 c-31 -42 -50 -79 -53 -104 -5 -38 -4 -39 123 -163 71 -68
153 -146 182 -173 43 -40 50 -50 40 -63 -7 -8 -94 -88 -194 -178 -105 -94
-187 -176 -194 -194 -21 -50 -5 -95 55 -157 44 -46 57 -54 76 -48 13 5 78 58
144 120 66 61 184 171 262 243 221 207 220 230 -21 453 -66 60 -121 107 -123
105 -5 -4 -9 -1 -145 132 -53 50 -98 92 -100 92 -2 0 -26 -29 -52 -65z"/>
</g>
</svg>
