<svg width="32" height="32" viewBox="0 0 32 32" fill="none" xmlns="http://www.w3.org/2000/svg">
  <rect width="32" height="32" rx="8" fill="url(#gradient)"/>
  
  <!-- Engrenagem principal -->
  <circle cx="16" cy="16" r="8" fill="none" stroke="white" stroke-width="1.5"/>
  <circle cx="16" cy="16" r="4" fill="none" stroke="white" stroke-width="1.5"/>
  
  <!-- Dentes da engrenagem -->
  <rect x="15.5" y="6" width="1" height="3" fill="white"/>
  <rect x="15.5" y="23" width="1" height="3" fill="white"/>
  <rect x="6" y="15.5" width="3" height="1" fill="white"/>
  <rect x="23" y="15.5" width="3" height="1" fill="white"/>
  
  <!-- Dentes diagonais -->
  <rect x="20.5" y="8.5" width="1" height="3" fill="white" transform="rotate(45 21 10)"/>
  <rect x="10.5" y="20.5" width="1" height="3" fill="white" transform="rotate(45 11 22)"/>
  <rect x="8.5" y="10.5" width="1" height="3" fill="white" transform="rotate(-45 9 12)"/>
  <rect x="20.5" y="20.5" width="1" height="3" fill="white" transform="rotate(-45 21 22)"/>
  
  <!-- Elementos de conexão -->
  <circle cx="16" cy="16" r="1.5" fill="white"/>
  
  <defs>
    <linearGradient id="gradient" x1="0%" y1="0%" x2="100%" y2="100%">
      <stop offset="0%" style="stop-color:oklch(0.707 0.165 254.624);stop-opacity:1" />
      <stop offset="100%" style="stop-color:oklch(0.6 0.2 254.624);stop-opacity:1" />
    </linearGradient>
  </defs>
</svg>